<svg xmlns="http://www.w3.org/2000/svg" xmlns:xlink="http://www.w3.org/1999/xlink" id="a" viewBox="0 0 992.71 265.18"><defs><style>.j{fill:#fff;}.k{fill:url(#c);}.l{fill:url(#f);}.m{fill:url(#g);}.n{fill:url(#b);}.o{fill:url(#i);}.p{fill:url(#h);}.q{fill:url(#d);}.r{fill:url(#e);}</style><linearGradient id="b" x1="4318.42" y1="-295.97" x2="4419.85" y2="-295.97" gradientTransform="translate(2681.25 -3429.76) rotate(128.69)" gradientUnits="userSpaceOnUse"><stop offset="0" stop-color="#ccc"></stop><stop offset=".06" stop-color="#d9d9d9"></stop><stop offset=".17" stop-color="#eaeaea"></stop><stop offset=".3" stop-color="#f6f6f6"></stop><stop offset=".49" stop-color="#fdfdfd"></stop><stop offset="1" stop-color="#fff"></stop></linearGradient><linearGradient id="c" x1="2835.04" y1="1113.18" x2="2936.47" y2="1113.18" gradientTransform="translate(642.42 -2945.74) rotate(77.26)" xlink:href="#b"></linearGradient><linearGradient id="d" x1="808.45" y1="832.02" x2="909.87" y2="832.02" gradientTransform="translate(-250.35 -1049.93) rotate(25.83)" gradientUnits="userSpaceOnUse"><stop offset="0" stop-color="#ccc"></stop><stop offset=".06" stop-color="#d9d9d9"></stop><stop offset=".17" stop-color="#eaeaea"></stop><stop offset=".3" stop-color="#f6f6f6"></stop><stop offset=".49" stop-color="#fdfdfd"></stop><stop offset="1" stop-color="#fff"></stop></linearGradient><linearGradient id="e" x1="-235.29" y1="-927.74" x2="-133.87" y2="-927.74" gradientTransform="translate(675.22 830.08) rotate(-25.6)" xlink:href="#b"></linearGradient><linearGradient id="f" x1="489.78" y1="-2840.96" x2="591.2" y2="-2840.96" gradientTransform="translate(2722.15 1278.61) rotate(-77.03)" xlink:href="#b"></linearGradient><linearGradient id="g" x1="2437.67" y1="-3466.95" x2="2539.09" y2="-3466.95" gradientTransform="translate(4349.07 -42.09) rotate(-128.46)" xlink:href="#b"></linearGradient><linearGradient id="h" x1="4143.85" y1="-2334.32" x2="4242.99" y2="-2334.32" gradientTransform="translate(4330.87 -2137.52) rotate(-179.89)" xlink:href="#b"></linearGradient><radialGradient id="i" cx="134.12" cy="132.06" fx="134.12" fy="132.06" r="22.64" gradientTransform="matrix(1, 0, 0, 1, 0, 0)" gradientUnits="userSpaceOnUse"><stop offset="0" stop-color="#fff"></stop><stop offset=".51" stop-color="#fdfdfd"></stop><stop offset=".7" stop-color="#f6f6f6"></stop><stop offset=".83" stop-color="#eaeaea"></stop><stop offset=".94" stop-color="#d9d9d9"></stop><stop offset="1" stop-color="#ccc"></stop></radialGradient></defs><g><g><path class="n" d="M200.76,232.04c-11.47,0-22.52-3.86-31.6-11.13-10.57-8.47-17.22-20.54-18.71-34.01-1.1-9.95,.71-19.78,5.15-28.5l-31.61-25.31c-4.48-3.59-5.2-10.13-1.62-14.61,3.59-4.48,10.13-5.2,14.61-1.62l38.9,31.15c2.15,1.72,3.53,4.23,3.83,6.97s-.49,5.49-2.22,7.64c-5,6.24-7.26,14.05-6.39,22,.88,7.95,4.8,15.07,11.04,20.07,12.88,10.32,31.76,8.23,42.07-4.66,10.32-12.88,8.23-31.76-4.66-42.07-4.48-3.59-5.2-10.13-1.62-14.61,3.59-4.48,10.13-5.2,14.61-1.62,10.57,8.47,17.22,20.54,18.71,34.01,1.49,13.46-2.35,26.7-10.82,37.28-8.47,10.57-20.54,17.22-34.01,18.71-1.9,.21-3.79,.31-5.68,.31Z"></path><path class="k" d="M217.42,159.72c-9.47,0-18.76-2.67-26.97-7.84-8.47-5.34-15.02-12.89-19.07-21.8l-39.5,8.93c-5.6,1.27-11.16-2.25-12.43-7.84-1.27-5.6,2.25-11.16,7.84-12.43l48.6-10.99c2.69-.61,5.51-.12,7.84,1.35,2.33,1.47,3.98,3.81,4.59,6.5,1.76,7.8,6.46,14.44,13.22,18.71,6.76,4.27,14.78,5.65,22.58,3.88,7.8-1.76,14.44-6.46,18.71-13.22,4.27-6.76,5.65-14.78,3.88-22.58-1.76-7.8-6.46-14.44-13.22-18.71s-14.78-5.65-22.58-3.88c-5.6,1.27-11.16-2.25-12.43-7.84-1.27-5.6,2.25-11.16,7.84-12.43,13.21-2.99,26.8-.65,38.25,6.58,11.46,7.23,19.41,18.49,22.4,31.7,2.99,13.21,.65,26.8-6.58,38.25-7.23,11.46-18.49,19.41-31.7,22.4-3.75,.85-7.53,1.27-11.28,1.27Z"></path><path class="q" d="M132.06,142.4c-1.52,0-3.06-.33-4.52-1.04-5.17-2.5-7.33-8.71-4.83-13.88l21.71-44.85c1.2-2.48,3.34-4.38,5.94-5.29,2.6-.9,5.46-.74,7.94,.46,7.2,3.48,15.32,3.96,22.87,1.33,7.55-2.63,13.63-8.03,17.11-15.23,3.48-7.2,3.96-15.32,1.33-22.87s-8.03-13.63-15.23-17.11c-7.2-3.48-15.32-3.96-22.87-1.33-7.55,2.63-13.63,8.03-17.11,15.23-2.5,5.17-8.71,7.33-13.88,4.83-5.17-2.5-7.33-8.71-4.83-13.88,5.9-12.19,16.2-21.36,28.99-25.81,12.79-4.45,26.56-3.65,38.75,2.25,12.19,5.9,21.36,16.2,25.81,28.99,4.45,12.79,3.65,26.56-2.25,38.75-5.9,12.19-16.2,21.36-28.99,25.81-9.46,3.29-19.44,3.71-28.93,1.32l-17.64,36.45c-1.79,3.71-5.5,5.87-9.36,5.87Z"></path><path class="r" d="M136.08,142.4c-3.87,0-7.59-2.18-9.38-5.9l-21.53-44.94c-2.48-5.18-.29-11.38,4.88-13.86,14.88-7.13,21.19-25.04,14.06-39.92-7.13-14.88-25.04-21.19-39.92-14.06-7.21,3.45-12.64,9.51-15.3,17.05-2.66,7.54-2.22,15.66,1.24,22.87,2.48,5.18,.29,11.38-4.88,13.86-5.18,2.48-11.38,.29-13.86-4.88-5.85-12.22-6.6-25.98-2.1-38.76,4.5-12.78,13.7-23.04,25.92-28.89,25.22-12.08,55.56-1.4,67.65,23.82,5.85,12.22,6.6,25.98,2.1,38.76-3.33,9.44-9.22,17.51-17.01,23.44l17.5,36.52c2.48,5.18,.29,11.38-4.88,13.86-1.45,.69-2.98,1.02-4.48,1.02Z"></path><path class="l" d="M41.68,158.34c-.77,0-1.56-.09-2.34-.27C12.09,151.8-4.98,124.52,1.3,97.27c6.28-27.25,33.55-44.31,60.8-38.04,23.78,5.48,39.8,26.95,39.33,50.44l39.48,9.09c5.59,1.29,9.08,6.87,7.79,12.46-1.29,5.59-6.87,9.08-12.46,7.79l-48.56-11.18c-5.59-1.29-9.08-6.87-7.79-12.46,3.7-16.08-6.37-32.18-22.45-35.88-16.08-3.7-32.18,6.37-35.88,22.45-3.7,16.08,6.37,32.18,22.45,35.88,5.59,1.29,9.08,6.87,7.79,12.46-1.11,4.81-5.39,8.06-10.12,8.06Z"></path><path class="m" d="M67.19,231.78c-1.95,0-3.91-.11-5.88-.34-13.46-1.54-25.51-8.24-33.93-18.84-8.42-10.61-12.21-23.86-10.67-37.32,1.54-13.46,8.23-25.51,18.84-33.93,10.61-8.42,23.86-12.21,37.32-10.67,9.95,1.14,19.13,5.09,26.64,11.36l31.71-25.19c4.49-3.57,11.03-2.82,14.6,1.67s2.82,11.03-1.67,14.6l-39.02,30.99c-2.16,1.71-4.91,2.5-7.65,2.19-2.74-.31-5.24-1.7-6.95-3.86-4.97-6.26-12.08-10.21-20.03-11.12-7.94-.91-15.76,1.33-22.02,6.3-6.26,4.97-10.21,12.08-11.12,20.03-.91,7.94,1.33,15.76,6.3,22.02,4.97,6.26,12.08,10.21,20.03,11.12,7.94,.91,15.76-1.33,22.02-6.3,4.49-3.57,11.03-2.82,14.6,1.67,3.57,4.49,2.82,11.03-1.67,14.6-9.06,7.19-20.04,11.01-31.44,11.01Z"></path><path class="p" d="M163.74,215.89c-1.27,15.35-14.17,27.44-29.83,27.44h-.06c-16.5-.03-29.9-13.49-29.87-29.99,.02-7.99,3.14-15.5,8.81-21.15,5.65-5.63,13.15-8.72,21.12-8.72,.03,0,.06,0,.08,0,2.75,0,5.39-1.09,7.33-3.03,1.95-1.94,3.05-4.59,3.06-7.34l.1-49.83c.01-5.74-4.63-10.4-10.37-10.41h-.02c-5.73,0-10.38,4.64-10.39,10.37l-.08,40.5c-9.59,1.97-18.4,6.68-25.5,13.74-9.6,9.56-14.9,22.28-14.92,35.83-.06,27.96,22.65,50.76,50.61,50.81h.1c22.68,0,41.95-14.98,48.4-35.57-2.72-1.07-6.01-2.64-9.49-4.95-3.94-2.61-6.93-5.39-9.09-7.7Z"></path></g><path class="o" d="M134.12,109.41h0c-8.09,0-15.56,4.32-19.61,11.32h0c-4.04,7.01-4.04,15.64,0,22.64h0c4.04,7.01,11.52,11.32,19.61,11.32h0c8.09,0,15.56-4.32,19.61-11.32h0c4.04-7.01,4.04-15.64,0-22.64h0c-4.04-7.01-11.52-11.32-19.61-11.32Z"></path></g><g><path class="j" d="M288.8,182.92l22.95-129.7c.52-3.24,1.78-5.54,3.79-6.9,2.01-1.36,4.76-2.04,8.26-2.04s6.16,.84,8.36,2.53c2.2,1.69,2.92,4.93,2.14,9.72l-22.56,128.53c-.52,2.59-2.11,4.8-4.76,6.61-2.66,1.82-5.87,2.72-9.63,2.72-3.5,0-5.93-1.1-7.29-3.31-1.36-2.2-1.78-4.92-1.26-8.17Zm100.14,0c0,3.5-1.04,6.29-3.11,8.36-2.08,2.08-4.86,3.11-8.36,3.11h-78.56l3.31-21.97h75.64c3.76,0,6.54,.91,8.36,2.72,1.81,1.82,2.72,4.41,2.72,7.78Zm5.25-60.67c0,2.85-1.17,5.35-3.5,7.49-2.33,2.14-5.38,3.21-9.14,3.21h-71.95l3.69-21.2h69.42c3.5,0,6.29,.94,8.36,2.82,2.07,1.88,3.11,4.44,3.11,7.68Zm17.89-67.86c0,2.98-1.1,5.71-3.3,8.17-2.21,2.46-4.99,3.7-8.36,3.7h-78.56l3.69-21.97h75.25c3.63,0,6.42,.94,8.36,2.82,1.95,1.88,2.92,4.31,2.92,7.29Z"></path><path class="j" d="M421.81,195.37c-4.41,0-7.71-1.62-9.92-4.86-2.21-3.24-3.31-8.49-3.31-15.75,0-4.15,.52-8.95,1.56-14.39,1.04-5.44,2.46-10.86,4.28-16.24,1.81-5.38,3.89-9.88,6.22-13.51,4.54-6.61,10.11-11.11,16.72-13.51,6.61-2.4,13.09-3.6,19.45-3.6h20.03v20.22h-20.03c-2.85,0-6.03,.55-9.53,1.65-3.5,1.1-6.55,3.53-9.14,7.29-1.43,2.33-2.72,5.25-3.89,8.75-1.17,3.5-2.11,7-2.82,10.5-.71,3.5-1.07,6.48-1.07,8.94,0,.52,.1,1.33,.29,2.43,.19,1.1,.55,1.65,1.07,1.65,.65,0,2.56-1.29,5.74-3.89,3.17-2.59,7.81-7.65,13.9-15.17,4.41-5.57,8.26-11.08,11.57-16.53s6.45-10.82,9.43-16.14h15.75c-2.08,4.54-4.44,9.04-7.1,13.51-2.66,4.47-5.38,8.91-8.17,13.32-2.79,4.41-5.54,8.88-8.26,13.42-3.37,5.71-7.46,10.99-12.25,15.85-4.8,4.86-9.85,8.75-15.17,11.67-5.32,2.92-10.44,4.38-15.36,4.38Zm45.89-.97c-3.63,0-6.35-1.04-8.17-3.11-1.82-2.07-2.46-4.41-1.95-7l8.56-48.03v-22.75h14.97c3.11,0,5.51,1.17,7.2,3.5,1.68,2.33,2.2,5.44,1.55,9.33l-10.31,59.5c-.39,1.69-1.43,3.53-3.11,5.54-1.69,2.01-4.6,3.01-8.75,3.01Z"></path><path class="j" d="M526.23,194.4h-15.95c-3.37,0-6.19-.84-8.46-2.53-2.27-1.68-3.4-4.15-3.4-7.39s1.17-5.9,3.5-7.58c2.33-1.68,5.18-2.53,8.56-2.53h15.75c3.89,0,6.71-.2,8.46-.58,1.75-.39,2.69-1.29,2.82-2.72,.26-1.04,.16-1.91-.29-2.63-.46-.71-1.2-1.39-2.24-2.04l-14.58-9.72c-3.24-2.2-6.29-4.93-9.14-8.17-2.85-3.24-4.21-7.45-4.08-12.64,.26-4.67,1.81-8.68,4.67-12.06,2.85-3.37,6.48-5.93,10.89-7.68,4.41-1.75,9.07-2.62,14-2.62h16.53c4.54,0,8.1,.75,10.69,2.24,2.59,1.49,3.89,4.12,3.89,7.88,0,3.24-1.2,5.77-3.6,7.58-2.4,1.82-5.03,2.72-7.88,2.72h-19.64c-2.46,0-4.38,.16-5.74,.49-1.36,.33-2.04,.75-2.04,1.26s.26,1.07,.78,1.65c.52,.58,1.42,1.33,2.72,2.24l18.67,13.03c2.72,1.94,4.99,4.89,6.81,8.85,1.81,3.96,2.33,8.26,1.56,12.93-.91,5.32-3.18,9.43-6.81,12.35-3.63,2.92-7.81,4.93-12.54,6.03-4.73,1.1-9.37,1.65-13.9,1.65Z"></path><path class="j" d="M562.59,253.71c0-2.98,.81-5.58,2.43-7.78,1.62-2.21,4.51-3.31,8.65-3.31h13.71c3.04,0,5.83-.03,8.36-.1,2.53-.07,4.38-.16,5.54-.29,3.11-.39,6.09-1.39,8.94-3.01,2.85-1.62,5.18-3.86,7-6.71,2.59-4.54,4.54-10.28,5.83-17.21,1.29-6.94,2.59-14.16,3.89-21.68l11.47-69.03c.65-3.63,2.11-6.38,4.38-8.26,2.27-1.88,5.28-2.82,9.04-2.82,4.41,0,7.2,1.1,8.36,3.31,1.17,2.21,1.36,5.38,.58,9.53l-11.67,69.23c-1.56,9.07-3.11,17.79-4.67,26.15-1.56,8.36-4.47,15.72-8.75,22.07-3.63,5.31-7.94,9.49-12.93,12.54-4.99,3.04-10.47,4.96-16.43,5.74-1.82,.26-4.31,.49-7.49,.68-3.18,.19-6.51,.36-10.01,.49-3.5,.13-6.64,.22-9.43,.29-2.79,.06-4.76,.1-5.93,.1-4.41,0-7.32-.94-8.75-2.82-1.42-1.88-2.14-4.25-2.14-7.1Zm31.5-58.34c-5.19,0-9.08-1.43-11.67-4.28-2.59-2.85-4.18-6.58-4.76-11.18-.58-4.6-.42-9.56,.49-14.88l7.39-41.61c.65-3.24,1.94-5.7,3.89-7.39,1.94-1.68,4.73-2.53,8.36-2.53,4.15,0,6.97,1.07,8.46,3.21,1.49,2.14,1.91,4.96,1.26,8.46l-7.39,41.81c-.26,1.82-.46,3.53-.58,5.15-.13,1.62-.07,2.89,.19,3.79,.26,.91,.78,1.36,1.56,1.36,1.56,0,3.6-1.1,6.12-3.31,2.53-2.2,5.25-5.15,8.17-8.85,2.92-3.69,5.83-7.84,8.75-12.44,2.92-4.6,5.61-9.33,8.07-14.2,2.46-4.86,4.47-9.5,6.03-13.9l2.72,30.14c-2.33,4.67-4.83,9.08-7.49,13.22-2.66,4.15-5.48,7.91-8.46,11.28-2.98,3.37-6.13,6.26-9.43,8.65-3.31,2.4-6.74,4.25-10.31,5.54-3.57,1.29-7.36,1.95-11.38,1.95Z"></path><path class="j" d="M678.68,181.95l22.75-128.53c.52-3.24,1.68-5.57,3.5-7,1.81-1.42,4.54-2.14,8.17-2.14,3.24,0,6.06,.84,8.46,2.53,2.4,1.69,3.21,4.93,2.43,9.72l-22.17,126.01c-.52,3.5-2.04,6.35-4.57,8.56-2.53,2.21-6,3.31-10.4,3.31-3.63,0-6.03-1.29-7.2-3.89-1.17-2.59-1.49-5.45-.97-8.56Zm102.87-58.72c0,2.85-.94,5.22-2.82,7.1s-4.7,2.82-8.46,2.82h-71.75l3.69-21h68.45c3.76,0,6.51,1.1,8.26,3.31,1.75,2.21,2.63,4.8,2.63,7.78Zm17.89-68.45c0,3.37-1.2,6.12-3.6,8.26-2.4,2.14-5.35,3.21-8.85,3.21h-78.17l4.28-21.97h75.06c3.63,0,6.42,.94,8.36,2.82,1.94,1.88,2.92,4.44,2.92,7.68Z"></path><path class="j" d="M807.6,194.4c-2.98,0-5.44-1.04-7.39-3.11-1.94-2.07-2.66-4.79-2.14-8.17l10.31-59.11c.65-3.11,2.07-5.64,4.28-7.58,2.2-1.95,4.73-2.92,7.58-2.92s5.54,1.23,7.68,3.69c2.14,2.46,2.88,5.58,2.24,9.33l-10.31,59.31c-.52,3.11-2.04,5.32-4.57,6.61-2.53,1.3-5.09,1.94-7.68,1.94Zm19.06-95.48c-3.24,0-6.06-1.2-8.46-3.6-2.4-2.4-3.6-5.28-3.6-8.65s1.17-6.25,3.5-8.65c2.33-2.4,5.18-3.6,8.56-3.6s6.12,1.17,8.65,3.5c2.53,2.33,3.79,5.25,3.79,8.75s-1.23,6.26-3.69,8.65c-2.46,2.4-5.38,3.6-8.75,3.6Z"></path><path class="j" d="M848.43,123.42c0-2.85,1-5.22,3.01-7.1,2.01-1.88,4.83-2.82,8.46-2.82h43.95c3.76,0,6.61,.94,8.56,2.82,1.94,1.88,2.92,4.25,2.92,7.1s-.97,5.19-2.92,7c-1.94,1.82-4.8,2.72-8.56,2.72h-43.95c-3.63,0-6.45-.91-8.46-2.72-2.01-1.81-3.01-4.15-3.01-7Zm21,70.98c-2.98,0-5.71-.78-8.17-2.33-2.46-1.56-3.37-4.15-2.72-7.78l19.83-112.78c.52-2.59,1.91-4.63,4.18-6.12,2.27-1.49,4.63-2.24,7.1-2.24,3.24,0,5.99,.75,8.26,2.24,2.27,1.49,3.08,4.25,2.43,8.26l-19.83,112.59c-.52,2.98-1.75,5.09-3.69,6.32-1.94,1.23-4.41,1.85-7.39,1.85Z"></path><path class="j" d="M943.33,194.4h-15.95c-3.37,0-6.19-.84-8.46-2.53-2.27-1.68-3.4-4.15-3.4-7.39s1.17-5.9,3.5-7.58c2.33-1.68,5.18-2.53,8.56-2.53h15.75c3.89,0,6.71-.2,8.46-.58,1.75-.39,2.69-1.29,2.82-2.72,.26-1.04,.16-1.91-.29-2.63-.46-.71-1.2-1.39-2.24-2.04l-14.58-9.72c-3.24-2.2-6.29-4.93-9.14-8.17-2.85-3.24-4.21-7.45-4.08-12.64,.26-4.67,1.81-8.68,4.67-12.06,2.85-3.37,6.48-5.93,10.89-7.68,4.41-1.75,9.07-2.62,14-2.62h16.53c4.54,0,8.1,.75,10.69,2.24,2.59,1.49,3.89,4.12,3.89,7.88,0,3.24-1.2,5.77-3.6,7.58-2.4,1.82-5.03,2.72-7.88,2.72h-19.64c-2.46,0-4.38,.16-5.74,.49-1.36,.33-2.04,.75-2.04,1.26s.26,1.07,.78,1.65c.52,.58,1.42,1.33,2.72,2.24l18.67,13.03c2.72,1.94,4.99,4.89,6.81,8.85,1.81,3.96,2.33,8.26,1.56,12.93-.91,5.32-3.18,9.43-6.81,12.35-3.63,2.92-7.81,4.93-12.54,6.03-4.73,1.1-9.37,1.65-13.9,1.65Z"></path></g></svg>