<svg width="214" height="213" viewBox="0 0 214 213" fill="none" xmlns="http://www.w3.org/2000/svg">
<rect width="214" height="213" rx="106.5" transform="matrix(1 0 0 -1 0 213)" fill="white"/>
<g clip-path="url(#clip0_885_3769)">
<path d="M144.742 50.0201C138.247 50.0201 131.989 52.1947 126.844 56.2937C120.854 61.0661 117.093 67.8721 116.247 75.4579C115.624 81.0661 116.651 86.605 119.166 91.5185L101.26 105.783C98.7239 107.803 98.3119 111.489 100.345 114.012C102.376 116.536 106.081 116.946 108.617 114.923L130.649 97.3716C131.866 96.4001 132.647 94.9894 132.821 93.4456C132.995 91.9018 132.54 90.3527 131.566 89.1416C128.736 85.6255 127.452 81.2231 127.949 76.7435C128.447 72.2665 130.667 68.2474 134.204 65.434C141.5 59.6208 152.19 60.7973 158.033 68.0584C163.876 75.3168 162.694 85.9529 155.395 91.7661C152.859 93.7863 152.447 97.4727 154.48 99.996C156.511 102.519 160.216 102.929 162.753 100.906C168.743 96.1339 172.504 89.3279 173.35 81.7421C174.192 74.1563 172.017 66.6956 167.22 60.7361C162.426 54.7765 155.583 51.0342 147.958 50.1931C146.883 50.076 145.81 50.0148 144.742 50.0148V50.0201Z" fill="url(#paint0_linear_885_3769)"/>
<path d="M154.181 90.7788C148.817 90.7788 143.552 92.2826 138.907 95.1998C134.111 98.2102 130.4 102.464 128.104 107.484L105.731 102.45C102.56 101.737 99.4088 103.715 98.6918 106.869C97.9748 110.023 99.9626 113.158 103.136 113.872L130.665 120.065C132.187 120.409 133.784 120.135 135.103 119.307C136.422 118.479 137.358 117.161 137.703 115.647C138.701 111.252 141.361 107.507 145.192 105.104C149.02 102.7 153.563 101.923 157.98 102.916C162.397 103.909 166.161 106.555 168.577 110.366C170.993 114.175 171.774 118.695 170.776 123.089C169.778 127.483 167.119 131.228 163.288 133.632C159.457 136.035 154.917 136.813 150.5 135.82C147.329 135.107 144.178 137.084 143.461 140.238C142.744 143.392 144.732 146.528 147.905 147.241C155.387 148.926 163.082 147.609 169.572 143.533C176.06 139.458 180.565 133.116 182.258 125.671C183.952 118.226 182.628 110.571 178.534 104.114C174.438 97.6592 168.063 93.1769 160.58 91.4921C158.456 91.013 156.313 90.7788 154.189 90.7788H154.181Z" fill="url(#paint1_linear_885_3769)"/>
<path d="M105.835 100.539C104.973 100.539 104.101 100.728 103.275 101.125C100.348 102.533 99.1252 106.036 100.54 108.947L112.836 134.223C113.516 135.62 114.728 136.693 116.202 137.201C117.676 137.712 119.295 137.616 120.699 136.94C124.776 134.979 129.375 134.71 133.653 136.19C137.931 137.67 141.371 140.717 143.346 144.774C145.32 148.83 145.588 153.406 144.1 157.662C142.613 161.918 139.549 165.341 135.472 167.305C131.395 169.269 126.796 169.533 122.518 168.056C118.24 166.576 114.8 163.528 112.826 159.472C111.41 156.56 107.89 155.343 104.963 156.751C102.036 158.159 100.813 161.662 102.229 164.574C105.57 171.444 111.402 176.61 118.65 179.118C125.897 181.625 133.69 181.172 140.598 177.848C147.503 174.523 152.696 168.721 155.216 161.51C157.736 154.3 157.282 146.546 153.94 139.674C150.599 132.801 144.766 127.638 137.519 125.13C132.163 123.278 126.505 123.041 121.13 124.385L111.135 103.842C110.118 101.753 108.018 100.536 105.832 100.536L105.835 100.539Z" fill="url(#paint2_linear_885_3769)"/>
<path d="M108.106 100.534C105.913 100.534 103.807 101.761 102.793 103.861L90.5963 129.187C89.1917 132.104 90.4304 135.601 93.3599 136.999C101.79 141.018 105.361 151.111 101.324 159.498C97.2846 167.885 87.1397 171.438 78.7098 167.422C74.6272 165.476 71.5479 162.064 70.0444 157.813C68.5408 153.565 68.7896 148.987 70.7453 144.923C72.1499 142.005 70.9112 138.508 67.9817 137.111C65.0495 135.713 61.5341 136.946 60.1296 139.86C56.8149 146.743 56.3922 154.499 58.9391 161.702C61.4887 168.902 66.7029 174.683 73.6213 177.983C87.9049 184.792 105.094 178.771 111.937 164.561C115.252 157.677 115.675 149.921 113.128 142.719C111.244 137.395 107.903 132.849 103.494 129.506L113.406 108.923C114.811 106.006 113.572 102.509 110.642 101.111C109.821 100.72 108.957 100.536 108.104 100.536L108.106 100.534Z" fill="url(#paint3_linear_885_3769)"/>
<path d="M54.6372 91.5558C54.1984 91.5558 53.7543 91.6037 53.3102 91.7075C37.8762 95.2422 28.2103 110.614 31.7658 125.969C35.3213 141.324 50.7713 150.941 66.2053 147.403C79.6756 144.316 88.7503 132.218 88.4801 118.982L110.84 113.858C114.008 113.131 115.985 109.988 115.255 106.837C114.524 103.685 111.365 101.718 108.197 102.445L80.6922 108.748C77.5246 109.474 75.5475 112.618 76.2779 115.769C78.3754 124.832 72.6716 133.903 63.5621 135.99C54.4552 138.077 45.335 132.402 43.2376 123.339C41.1401 114.276 46.8439 105.205 55.9534 103.118C59.121 102.392 61.0981 99.2481 60.3677 96.0966C59.7417 93.387 57.3178 91.5531 54.6372 91.5531V91.5558Z" fill="url(#paint4_linear_885_3769)"/>
<path d="M69.0893 50.172C67.9843 50.172 66.8741 50.2358 65.7612 50.3609C58.1391 51.2313 51.3117 55.0029 46.5416 60.9784C41.7688 66.9566 39.6232 74.4253 40.498 82.0084C41.3728 89.5916 45.1611 96.3842 51.1699 101.13C57.1787 105.878 64.6857 108.013 72.3077 107.143C77.9419 106.499 83.1428 104.271 87.3965 100.739L105.359 114.934C107.903 116.946 111.606 116.523 113.628 113.991C115.651 111.46 115.225 107.776 112.681 105.764L90.5775 88.298C89.3549 87.3318 87.7978 86.89 86.2461 87.0657C84.6945 87.244 83.2792 88.0265 82.3081 89.2403C79.4909 92.767 75.4646 94.9948 70.9647 95.5059C66.4674 96.0196 62.0344 94.7579 58.4896 91.9578C54.9448 89.1551 52.7055 85.1466 52.1919 80.6723C51.6755 76.1953 52.9436 71.7876 55.7581 68.2608C58.5752 64.7341 62.6016 62.5062 67.1015 61.9952C71.6014 61.4815 76.0317 62.7431 79.5766 65.5432C82.1208 67.5555 85.8234 67.1323 87.846 64.601C89.8685 62.0697 89.4432 58.3859 86.8989 56.3737C81.7676 52.3199 75.5448 50.1693 69.0893 50.1693V50.172Z" fill="url(#paint5_linear_885_3769)"/>
<path d="M123.773 59.1231C123.053 50.4727 115.747 43.6587 106.878 43.6587H106.844C97.4959 43.6774 89.906 51.2578 89.9248 60.5578C89.9328 65.064 91.7065 69.2961 94.9142 72.4742C98.1139 75.6443 102.362 77.3903 106.876 77.3903C106.892 77.3903 106.908 77.3903 106.921 77.3903C108.478 77.3903 109.971 78.0052 111.076 79.0965C112.181 80.1931 112.804 81.681 112.807 83.2327L112.863 111.314C112.868 114.548 110.239 117.175 106.988 117.18H106.977C103.732 117.18 101.1 114.566 101.092 111.335L101.046 88.5135C95.6152 87.4063 90.623 84.7499 86.6047 80.768C81.1684 75.3807 78.1667 68.2102 78.1506 60.5764C78.1185 44.8192 90.9788 31.9739 106.817 31.942H106.876C119.723 31.942 130.635 40.3822 134.292 51.9871C132.754 52.5913 130.889 53.475 128.918 54.7766C126.689 56.2485 124.993 57.8109 123.77 59.1178L123.773 59.1231Z" fill="url(#paint6_linear_885_3769)"/>
<ellipse rx="13.1075" ry="13.0462" transform="matrix(1 0 0 -1 107 106.766)" fill="#53067E"/>
</g>
<defs>
<linearGradient id="paint0_linear_885_3769" x1="151.745" y1="109.717" x2="116.057" y2="64.9278" gradientUnits="userSpaceOnUse">
<stop stop-color="#7443B8"/>
<stop offset="1" stop-color="#53067E"/>
</linearGradient>
<linearGradient id="paint1_linear_885_3769" x1="134.13" y1="144.157" x2="146.676" y2="88.3821" gradientUnits="userSpaceOnUse">
<stop stop-color="#7443B8"/>
<stop offset="1" stop-color="#53067E"/>
</linearGradient>
<linearGradient id="paint2_linear_885_3769" x1="96.0778" y1="151.939" x2="147.687" y2="126.828" gradientUnits="userSpaceOnUse">
<stop stop-color="#7443B8"/>
<stop offset="1" stop-color="#53067E"/>
</linearGradient>
<linearGradient id="paint3_linear_885_3769" x1="66.2312" y1="127.196" x2="117.942" y2="152.099" gradientUnits="userSpaceOnUse">
<stop stop-color="#7443B8"/>
<stop offset="1" stop-color="#53067E"/>
</linearGradient>
<linearGradient id="paint4_linear_885_3769" x1="67.0588" y1="88.5546" x2="79.8283" y2="144.282" gradientUnits="userSpaceOnUse">
<stop stop-color="#7443B8"/>
<stop offset="1" stop-color="#53067E"/>
</linearGradient>
<linearGradient id="paint5_linear_885_3769" x1="97.9341" y1="65.1034" x2="62.4273" y2="110.035" gradientUnits="userSpaceOnUse">
<stop stop-color="#7443B8"/>
<stop offset="1" stop-color="#53067E"/>
</linearGradient>
<linearGradient id="paint6_linear_885_3769" x1="134.321" y1="74.4957" x2="78.1628" y2="74.6041" gradientUnits="userSpaceOnUse">
<stop stop-color="#7443B8"/>
<stop offset="1" stop-color="#53067E"/>
</linearGradient>
<clipPath id="clip0_885_3769">
<rect width="151.94" height="148.834" fill="white" transform="matrix(1 0 0 -1 31.03 180.784)"/>
</clipPath>
</defs>
</svg>
